<svg xmlns="http://www.w3.org/2000/svg" viewBox="0 0 275.41 172.71" width="32px"
   height="32px" style="enable-background:new 0 0 275.41 172.71" xml:space="preserve">
    <linearGradient id="a" gradientUnits="userSpaceOnUse" x1="172.385" y1="4.653" x2="101.537" y2="171.562">
        <stop offset="0" style="stop-color:#666"/>
        <stop offset="1" style="stop-color:#666;stop-opacity:0"/>
    </linearGradient>
    <path d="M133.61.02C42.08-1.35 0 86.35 0 86.35s42.08 87.7 133.61 86.34c91.53-1.37 141.8-86.34 141.8-86.34S225.14 1.38 133.61.02zM99.65 37.56c9.07-9.9 22.71-14.47 40.54-13.61 4.14.2 7.33 3.72 7.12 7.86a7.477 7.477 0 0 1-7.86 7.12c-13.1-.64-22.76 2.28-28.68 8.69-9.11 9.85-7.23 25.43-7.21 25.58a7.519 7.519 0 0 1-7.45 8.48c-3.69 0-6.9-2.71-7.41-6.47-.12-.91-2.9-22.53 10.95-37.65zm34.72 119.14C59.79 157.82 25.5 86.35 25.5 86.35s17.84-37.17 55.75-57.47C72.14 40.53 66.7 55.18 66.7 71.12c0 37.9 30.72 68.62 68.62 68.62s68.62-30.72 68.62-68.62c0-14.96-4.8-28.79-12.93-40.07 38.39 20.67 58.89 55.31 58.89 55.31s-40.95 69.23-115.53 70.34z" style="fill:url(#a)"/>
</svg>
