<svg xmlns="http://www.w3.org/2000/svg" xmlns:xlink="http://www.w3.org/1999/xlink" viewBox="0 0 26.715 24.227" style="enable-background:new 0 0 26.715 24.227" xml:space="preserve"><defs><linearGradient id="e"><stop style="stop-color:#0e770e;stop-opacity:1" offset="0"/><stop style="stop-color:#0e770e;stop-opacity:0" offset="1"/></linearGradient><linearGradient id="d"><stop style="stop-color:#006a00;stop-opacity:1" offset="0"/><stop style="stop-color:#96e696;stop-opacity:0" offset="1"/></linearGradient><linearGradient id="c"><stop style="stop-color:#e52424;stop-opacity:1" offset="0"/><stop style="stop-color:#c80000;stop-opacity:.5411765" offset="1"/></linearGradient><linearGradient id="b"><stop style="stop-color:#e52424;stop-opacity:1" offset="0"/><stop style="stop-color:#c80000;stop-opacity:.5411765" offset="1"/></linearGradient><linearGradient id="a"><stop style="stop-color:#e52424;stop-opacity:1" offset="0"/><stop style="stop-color:#c80000;stop-opacity:.5411765" offset="1"/></linearGradient><linearGradient xlink:href="#a" id="g" x1=".103" y1="24.124" x2="26.665" y2=".026" gradientUnits="userSpaceOnUse" gradientTransform="scale(.7513)"/><linearGradient xlink:href="#b" id="i" x1="0" y1="24.227" x2="26.665" y2=".077" gradientUnits="userSpaceOnUse" gradientTransform="scale(.7513)"/><linearGradient xlink:href="#c" id="h" x1=".207" y1="24.191" x2="26.669" y2=".218" gradientUnits="userSpaceOnUse" gradientTransform="scale(.7513)"/><linearGradient xlink:href="#d" id="f" x1="26.495" y1=".055" x2="0" y2="24.227" gradientUnits="userSpaceOnUse"/><linearGradient xlink:href="#e" id="j" x1="24.535" y1="16.682" x2="15.655" y2="25.1" gradientUnits="userSpaceOnUse"/></defs><path d="M10.765 13.227H9.347c-.2 0-.388.08-.388.28v1.362c0 .15.035.45.065.595l.493 2.572c.03.147.2.44.35.44h.425c.152 0 .333-.292.362-.44l.477-2.602a3.82 3.82 0 0 0 .077-.565v-.99c-.248-.209-.308-.402-.443-.652Zm.445 6.023a.272.272 0 0 0-.272-.273H9.232a.272.272 0 0 0-.272.273v1.705c0 .151.122.273.272.273h1.705c.15 0 .272-.122.272-.273zm0 0a.272.272 0 0 0-.272-.273H9.232a.272.272 0 0 0-.272.273v1.705c0 .151.122.273.272.273h1.705c.15 0 .272-.122.272-.273zm-.445-6.023H9.347c-.2 0-.388.08-.388.28v1.362c0 .15.035.45.065.595l.493 2.572c.03.147.2.44.35.44h.425c.152 0 .333-.292.362-.44l.477-2.602a3.82 3.82 0 0 0 .077-.565v-.99c-.248-.209-.308-.402-.443-.652Zm0 0H9.347c-.2 0-.388.08-.388.28v1.362c0 .15.035.45.065.595l.493 2.572c.03.147.2.44.35.44h.425c.152 0 .333-.292.362-.44l.477-2.602a3.82 3.82 0 0 0 .077-.565v-.99c-.248-.209-.308-.402-.443-.652Zm.445 6.023a.272.272 0 0 0-.272-.273H9.232a.272.272 0 0 0-.272.273v1.705c0 .151.122.273.272.273h1.705c.15 0 .272-.122.272-.273zm8.793 3.152-3.1-5.247a9.299 9.299 0 0 1-3.157-1.073l3.435 5.895H2.967l6.705-11.5a10.864 10.864 0 0 1-.154-3.675 1.075 1.075 0 0 0-.388.39L.145 22.402c-.195.338-.193.847.002 1.182.195.337.552.642.943.642h17.968c.39 0 .747-.305.943-.642a1.27 1.27 0 0 0 .002-1.182zm-9.238-9.175H9.347c-.2 0-.388.08-.388.28v1.362c0 .15.035.45.065.595l.493 2.572c.03.147.2.44.35.44h.425c.152 0 .333-.292.362-.44l.477-2.602a3.82 3.82 0 0 0 .077-.565v-.99c-.248-.209-.308-.402-.443-.652Zm.445 6.023a.272.272 0 0 0-.272-.273H9.232a.272.272 0 0 0-.272.273v1.705c0 .151.122.273.272.273h1.705c.15 0 .272-.122.272-.273zm0 0a.272.272 0 0 0-.272-.273H9.232a.272.272 0 0 0-.272.273v1.705c0 .151.122.273.272.273h1.705c.15 0 .272-.122.272-.273zm-.445-6.023H9.347c-.2 0-.388.08-.388.28v1.362c0 .15.035.45.065.595l.493 2.572c.03.147.2.44.35.44h.425c.152 0 .333-.292.362-.44l.477-2.602a3.82 3.82 0 0 0 .077-.565v-.99c-.248-.209-.308-.402-.443-.652ZM18.573 0c-4.055 0-7.418 2.667-8.04 6.75a9.01 9.01 0 0 0-.105 1.393c0 1.15.177 2.188.503 3.107a7.3 7.3 0 0 0 1.427 2.452c1.003 1.135 2.337 1.91 3.862 2.298.745.19 1.535.288 2.353.288a8.144 8.144 0 0 0 0-16.288Zm5.667 5.548-7.122 7.122a.24.24 0 0 1-.175.073.244.244 0 0 1-.175-.073l-1.595-1.595c-.098-.098-.253-.253-.35-.345l-1.92-1.925a.247.247 0 0 1 0-.35l1.595-1.595a.243.243 0 0 1 .175-.072c.063 0 .127.022.174.072l1.92 1.92a.249.249 0 0 0 .35 0l5.165-5.165a.254.254 0 0 1 .175-.073.25.25 0 0 1 .175.073l1.608 1.587a.242.242 0 0 1 0 .346z" style="fill:url(#f);fill-opacity:1" transform="scale(.74554)"/><path style="fill:url(#g);fill-opacity:1;stroke-width:.75130385" d="M.596 18.142c-.48-.198-.72-.778-.509-1.236.025-.053 1.442-2.46 3.149-5.35L6.624 5.82c.214-.365.31-.508.39-.586.057-.057.11-.1.115-.094a.93.93 0 0 1-.016.19 8.199 8.199 0 0 0-.023.827c0 .691.018.9.116 1.44l.05.275-1.943 3.331-2.516 4.315-.573.984 2.68.004c1.474.003 3.879.003 5.345 0l2.665-.004-1.269-2.178a153.122 153.122 0 0 1-1.261-2.184c.004-.005.104.04.223.1.56.28 1.283.52 1.882.62l.203.035 1.178 1.994c.786 1.33 1.19 2.032 1.214 2.108a.982.982 0 0 1-.098.765 1.185 1.185 0 0 1-.401.365l-.112.052-6.883.004-6.884.005-.11-.046z"/><path style="fill:url(#h);fill-opacity:1;stroke-width:.75130385" d="m6.805 15.876-.063-.056v-1.427l.056-.06.057-.059h1.442l.056.057.056.056v1.433l-.056.056-.056.057h-1.43l-.062-.057z"/><path style="fill:url(#i);fill-opacity:1;stroke-width:.75130385" d="M7.325 13.831a.598.598 0 0 1-.109-.159c-.052-.104-.087-.26-.253-1.137a28.668 28.668 0 0 1-.212-1.205c-.03-.31-.024-1.17.008-1.249.052-.123.076-.127.739-.121l.593.005.083.154c.045.085.118.19.16.234l.079.08-.008.48-.009.479-.196 1.06c-.108.584-.21 1.103-.227 1.154a.53.53 0 0 1-.112.179l-.081.085h-.203c-.174 0-.21-.006-.252-.039z"/><path class="st0" d="M20.007 16.132c-4.296-.064-6.271 4.052-6.271 4.052s1.975 4.117 6.271 4.053c4.297-.065 6.656-4.053 6.656-4.053s-2.36-3.988-6.656-4.052zm-1.594 1.762c.426-.465 1.066-.68 1.903-.639a.351.351 0 1 1-.035.703c-.614-.03-1.068.107-1.346.408-.427.463-.339 1.194-.338 1.201a.353.353 0 0 1-.35.398.35.35 0 0 1-.348-.304c-.006-.042-.136-1.057.514-1.767zm1.63 5.592c-3.5.053-5.11-3.302-5.11-3.302s.837-1.744 2.617-2.697a3.22 3.22 0 1 0 5.152.102c1.802.97 2.764 2.596 2.764 2.596s-1.922 3.25-5.423 3.301z" style="stroke-width:.04693755;fill:url(#j);fill-opacity:1"/></svg>