<svg xmlns="http://www.w3.org/2000/svg" style="enable-background:new 0 0 32 32" xml:space="preserve" width="32" height="32" class="br-symbol-library"><path d="M21.3 18V4c0-2.2-1.8-4-4-4h-2.7c-2.2 0-3.9 1.8-3.9 4v14C9 19.5 8 21.6 8 24c0 4.4 3.6 8 8 8s8-3.6 8-8c0-2.4-1-4.5-2.7-6zM16 29.6c-3.1 0-5.6-2.5-5.6-5.6 0-2.1 1.1-3.9 2.9-4.9V4c0-.7.6-1.2 1.4-1.2h2.7c.7 0 1.5.5 1.5 1.2v1.3H16v1.5h2.8V8H16v1.3h2.8v1.5H16V12h2.8v7.1c1.8 1 2.8 2.8 2.8 4.9 0 3.1-2.6 5.6-5.6 5.6zm3.8-5.6c0 2.1-1.7 3.8-3.8 3.8s-3.8-1.7-3.8-3.8c0-1.6 1.1-3 2.6-3.6V14c0-.4.2-.7.5-.7h1.3c.4 0 .6.4.6.7v6.4c1.6.6 2.6 1.9 2.6 3.6z"/></svg>