<svg xmlns="http://www.w3.org/2000/svg" style="enable-background:new 0 0 32 32" xml:space="preserve" width="32" height="32" class="br-symbol-library"><path d="M32 15.3v-.4l-1.5-3.5c-.2-.4-.5-.6-1-.6h-2.6c-.6 0-.9.4-.9 1v1.7h-1V12c0-.6-.4-1-1-1h-2.8V8.2c0-.6-.5-1.2-1-1.2H15V6h5.2c.6 0 1-.4 1-1s-.5-1-1-1H7.9c-.6 0-1 .4-1 1s.5 1 1 1H13v1H7.9c-.6 0-1.2.6-1.2 1.2V9H4.6c-.6 0-1.1.5-1.1 1.1v5.7H2v-5.7c0-.6-.4-1-1-1s-1 .5-1 1v13.3c0 .6.4 1 1 1s1-.5 1-1v-5.6h1.5v5.6c0 .6.5 1.2 1.1 1.2h4l4.1 3.4c.2.2.4.1.7.1H24c.6 0 1-.4 1-1v-2.8h1v1.6c0 .6.4.9.9.9h2.6c.4 0 .8-.2.9-.6l1.5-3.5c.1-.1 0-.3 0-.4l.1-7zm-8 2.6c0 .2-.2.3-.3.3h-1.4c-.4 3.2-3 5.9-6.3 6.3v1.4c0 .2-.2.3-.3.3h-.8c-.2 0-.3-.2-.3-.3v-1.4c-3.2-.4-6-3-6.3-6.3H6.8c-.2 0-.3-.2-.3-.3v-.8c0-.2.2-.3.3-.3h1.3c.4-3.2 3.1-6 6.3-6.3V9.1c0-.2.2-.3.3-.3h.8c.2 0 .3.2.3.3v1.3c3.3.4 5.9 3.1 6.3 6.3h1.4c.2 0 .3.2.3.3l.2.9zm-6 0v-.8c0-.2.2-.3.3-.3h2.3c-.4-2.5-2.1-4.3-4.6-4.7v2.4c0 .2-.2.3-.3.3h-.8c-.2 0-.3-.2-.3-.3v-2.4c-2.5.4-4.3 2.2-4.7 4.7h2.4c.2 0 .3.2.3.3v.8c0 .2-.2.3-.3.3H9.8c.3 2.5 2.2 4.3 4.7 4.6v-2.3c0-.2.2-.3.3-.3h.8c.2 0 .3.2.3.3v2.3c2.5-.4 4.3-2.1 4.6-4.6h-2.3s-.2-.1-.2-.3z"/></svg>