<svg xmlns="http://www.w3.org/2000/svg" xmlns:xlink="http://www.w3.org/1999/xlink" viewBox="0 0 26.715 24.227" style="enable-background:new 0 0 26.715 24.227" xml:space="preserve"><defs><linearGradient id="d"><stop style="stop-color:#a0a0a0;stop-opacity:1" offset="0"/><stop style="stop-color:#e3e3e3;stop-opacity:1" offset="1"/></linearGradient><linearGradient id="c"><stop style="stop-color:#e3e3e3;stop-opacity:1" offset="0"/><stop style="stop-color:#a0a0a0;stop-opacity:1" offset="1"/></linearGradient><linearGradient id="b"><stop style="stop-color:#e3e3e3;stop-opacity:1" offset="0"/><stop style="stop-color:#a0a0a0;stop-opacity:1" offset="1"/></linearGradient><linearGradient id="a"><stop style="stop-color:#e3e3e3;stop-opacity:1" offset="0"/><stop style="stop-color:#a0a0a0;stop-opacity:1" offset="1"/></linearGradient><linearGradient xlink:href="#a" id="g" x1=".103" y1="24.124" x2="26.665" y2=".026" gradientUnits="userSpaceOnUse" gradientTransform="scale(.75002)"/><linearGradient xlink:href="#b" id="i" x1="0" y1="24.227" x2="26.665" y2=".077" gradientUnits="userSpaceOnUse" gradientTransform="scale(.75002)"/><linearGradient xlink:href="#c" id="h" x1=".207" y1="24.191" x2="26.669" y2=".218" gradientUnits="userSpaceOnUse" gradientTransform="scale(.75002)"/><linearGradient xlink:href="#d" id="f" x1="26.495" y1=".055" x2="0" y2="24.227" gradientUnits="userSpaceOnUse"/><linearGradient gradientTransform="translate(.053 -.022)" xlink:href="#e" id="j" x1="24.535" y1="16.682" x2="15.655" y2="25.1" gradientUnits="userSpaceOnUse"/><linearGradient id="e"><stop style="stop-color:#0e770e;stop-opacity:1" offset="0"/><stop style="stop-color:#0e770e;stop-opacity:0" offset="1"/></linearGradient></defs><path d="M10.765 13.227H9.347c-.2 0-.388.08-.388.28v1.362c0 .15.035.45.065.595l.493 2.572c.03.147.2.44.35.44h.425c.152 0 .333-.292.362-.44l.477-2.602a3.82 3.82 0 0 0 .077-.565v-.99c-.248-.209-.308-.402-.443-.652Zm.445 6.023a.272.272 0 0 0-.272-.273H9.232a.272.272 0 0 0-.272.273v1.705c0 .151.122.273.272.273h1.705c.15 0 .272-.122.272-.273l.001-1.705Zm0 0a.272.272 0 0 0-.272-.273H9.232a.272.272 0 0 0-.272.273v1.705c0 .151.122.273.272.273h1.705c.15 0 .272-.122.272-.273l.001-1.705Zm-.445-6.023H9.347c-.2 0-.388.08-.388.28v1.362c0 .15.035.45.065.595l.493 2.572c.03.147.2.44.35.44h.425c.152 0 .333-.292.362-.44l.477-2.602a3.82 3.82 0 0 0 .077-.565v-.99c-.248-.209-.308-.402-.443-.652Zm0 0H9.347c-.2 0-.388.08-.388.28v1.362c0 .15.035.45.065.595l.493 2.572c.03.147.2.44.35.44h.425c.152 0 .333-.292.362-.44l.477-2.602a3.82 3.82 0 0 0 .077-.565v-.99c-.248-.209-.308-.402-.443-.652Zm.445 6.023a.272.272 0 0 0-.272-.273H9.232a.272.272 0 0 0-.272.273v1.705c0 .151.122.273.272.273h1.705c.15 0 .272-.122.272-.273l.001-1.705Zm8.793 3.152-3.1-5.247a9.299 9.299 0 0 1-3.157-1.073l3.435 5.895H2.967l6.705-11.5a10.864 10.864 0 0 1-.154-3.675 1.075 1.075 0 0 0-.388.39L.145 22.402c-.195.338-.193.847.002 1.182.195.337.552.642.943.642h17.968c.39 0 .747-.305.943-.642a1.27 1.27 0 0 0 .002-1.182zm-9.238-9.175H9.347c-.2 0-.388.08-.388.28v1.362c0 .15.035.45.065.595l.493 2.572c.03.147.2.44.35.44h.425c.152 0 .333-.292.362-.44l.477-2.602a3.82 3.82 0 0 0 .077-.565v-.99c-.248-.209-.308-.402-.443-.652Zm.445 6.023a.272.272 0 0 0-.272-.273H9.232a.272.272 0 0 0-.272.273v1.705c0 .151.122.273.272.273h1.705c.15 0 .272-.122.272-.273l.001-1.705Zm0 0a.272.272 0 0 0-.272-.273H9.232a.272.272 0 0 0-.272.273v1.705c0 .151.122.273.272.273h1.705c.15 0 .272-.122.272-.273l.001-1.705Zm-.445-6.023H9.347c-.2 0-.388.08-.388.28v1.362c0 .15.035.45.065.595l.493 2.572c.03.147.2.44.35.44h.425c.152 0 .333-.292.362-.44l.477-2.602a3.82 3.82 0 0 0 .077-.565v-.99c-.248-.209-.308-.402-.443-.652ZM18.573 0c-4.055 0-7.418 2.667-8.04 6.75a9.01 9.01 0 0 0-.105 1.393c0 1.15.177 2.188.503 3.107a7.3 7.3 0 0 0 1.427 2.452c1.003 1.135 2.337 1.91 3.862 2.298.745.19 1.535.288 2.353.288a8.144 8.144 0 0 0 0-16.288Zm5.667 5.548-7.122 7.122a.24.24 0 0 1-.175.073.244.244 0 0 1-.175-.073l-1.595-1.595c-.098-.098-.253-.253-.35-.345l-1.92-1.925a.247.247 0 0 1 0-.35l1.595-1.595a.243.243 0 0 1 .175-.072c.063 0 .127.022.174.072l1.92 1.92a.249.249 0 0 0 .35 0l5.165-5.165a.254.254 0 0 1 .175-.073.25.25 0 0 1 .175.073l1.608 1.587a.242.242 0 0 1 0 .346z" style="fill:url(#f);fill-opacity:1" transform="scale(.75002)"/><path style="fill:url(#g);fill-opacity:1;stroke-width:.75002235" d="M.595 18.111c-.48-.197-.718-.777-.508-1.233.025-.053 1.44-2.457 3.144-5.342L6.612 5.81c.214-.364.31-.507.39-.585.057-.057.11-.1.115-.094a.927.927 0 0 1-.016.19 8.185 8.185 0 0 0-.023.825c0 .69.017.898.115 1.439l.05.273-1.939 3.326-2.511 4.308-.573.981 2.675.005c1.472.003 3.873.003 5.336 0l2.66-.005-1.266-2.173a152.871 152.871 0 0 1-1.259-2.181c.004-.004.104.04.222.1a7.19 7.19 0 0 0 1.88.62l.202.034 1.176 1.99c.785 1.328 1.188 2.029 1.212 2.105a.98.98 0 0 1-.097.764 1.183 1.183 0 0 1-.4.364l-.112.052-6.872.004-6.872.005z"/><path style="fill:url(#h);fill-opacity:1;stroke-width:.75002235" d="m6.793 15.85-.063-.057v-1.425l.057-.059.056-.059h1.44l.056.056.056.057v1.43l-.056.056-.056.057H6.856l-.063-.057z"/><path style="fill:url(#i);fill-opacity:1;stroke-width:.75002235" d="M7.312 13.808a.597.597 0 0 1-.108-.159c-.052-.104-.087-.26-.253-1.135-.106-.558-.201-1.1-.211-1.203-.03-.31-.025-1.169.008-1.247.051-.123.075-.127.737-.121l.592.005.083.154c.045.084.117.19.16.233l.079.08-.009.479-.008.478-.196 1.06c-.108.581-.21 1.1-.227 1.151a.529.529 0 0 1-.111.178l-.082.085h-.202c-.173 0-.21-.006-.252-.038z"/><path class="st0" d="M20.06 16.11c-4.296-.065-6.271 4.052-6.271 4.052s1.975 4.116 6.271 4.052c4.296-.064 6.656-4.052 6.656-4.052s-2.36-3.989-6.656-4.052zm-1.594 1.762c.426-.465 1.066-.68 1.903-.64a.351.351 0 1 1-.035.704c-.615-.03-1.068.107-1.346.408-.427.462-.34 1.193-.338 1.2a.353.353 0 0 1-.35.399.35.35 0 0 1-.348-.304c-.006-.043-.136-1.058.514-1.767zm1.63 5.592c-3.5.052-5.11-3.302-5.11-3.302s.837-1.745 2.617-2.698a3.22 3.22 0 1 0 5.152.102c1.801.97 2.764 2.596 2.764 2.596s-1.923 3.25-5.423 3.302z" style="fill:url(#j);fill-opacity:1;stroke-width:.04693755"/></svg>