<svg xmlns="http://www.w3.org/2000/svg" xmlns:xlink="http://www.w3.org/1999/xlink" viewBox="0 0 26.715 24.227" style="enable-background:new 0 0 26.715 24.227" xml:space="preserve"><defs><linearGradient id="d"><stop style="stop-color:#006a00;stop-opacity:1" offset="0"/><stop style="stop-color:#96e696;stop-opacity:0" offset="1"/></linearGradient><linearGradient id="c"><stop style="stop-color:#e52424;stop-opacity:1" offset="0"/><stop style="stop-color:#c80000;stop-opacity:.5411765" offset="1"/></linearGradient><linearGradient id="b"><stop style="stop-color:#e52424;stop-opacity:1" offset="0"/><stop style="stop-color:#c80000;stop-opacity:.5411765" offset="1"/></linearGradient><linearGradient id="a"><stop style="stop-color:#e52424;stop-opacity:1" offset="0"/><stop style="stop-color:#c80000;stop-opacity:.5411765" offset="1"/></linearGradient><linearGradient xlink:href="#a" id="f" x1=".103" y1="24.124" x2="26.665" y2=".026" gradientUnits="userSpaceOnUse"/><linearGradient xlink:href="#b" id="h" x1="0" y1="24.227" x2="26.665" y2=".077" gradientUnits="userSpaceOnUse"/><linearGradient xlink:href="#c" id="g" x1=".207" y1="24.191" x2="26.669" y2=".218" gradientUnits="userSpaceOnUse"/><linearGradient xlink:href="#d" id="e" x1="26.495" y1=".055" x2="0" y2="24.227" gradientUnits="userSpaceOnUse"/></defs><path d="M10.765 13.227H9.347c-.2 0-.388.08-.388.28v1.362c0 .15.035.45.065.595l.493 2.572c.03.147.2.44.35.44h.425c.152 0 .333-.292.362-.44l.477-2.602a3.82 3.82 0 0 0 .077-.565v-.99c-.248-.209-.308-.402-.443-.652zm.445 6.023a.272.272 0 0 0-.272-.273H9.232a.272.272 0 0 0-.272.273v1.705c0 .151.122.273.272.273h1.705c.15 0 .272-.122.272-.273l.001-1.705zm0 0a.272.272 0 0 0-.272-.273H9.232a.272.272 0 0 0-.272.273v1.705c0 .151.122.273.272.273h1.705c.15 0 .272-.122.272-.273l.001-1.705zm-.445-6.023H9.347c-.2 0-.388.08-.388.28v1.362c0 .15.035.45.065.595l.493 2.572c.03.147.2.44.35.44h.425c.152 0 .333-.292.362-.44l.477-2.602a3.82 3.82 0 0 0 .077-.565v-.99c-.248-.209-.308-.402-.443-.652zm0 0H9.347c-.2 0-.388.08-.388.28v1.362c0 .15.035.45.065.595l.493 2.572c.03.147.2.44.35.44h.425c.152 0 .333-.292.362-.44l.477-2.602a3.82 3.82 0 0 0 .077-.565v-.99c-.248-.209-.308-.402-.443-.652zm.445 6.023a.272.272 0 0 0-.272-.273H9.232a.272.272 0 0 0-.272.273v1.705c0 .151.122.273.272.273h1.705c.15 0 .272-.122.272-.273l.001-1.705zm8.793 3.152-3.1-5.247a9.299 9.299 0 0 1-3.157-1.073l3.435 5.895H2.967l6.705-11.5a10.864 10.864 0 0 1-.154-3.675 1.075 1.075 0 0 0-.388.39L.145 22.402c-.195.338-.193.847.002 1.182.195.337.552.642.943.642h17.968c.39 0 .747-.305.943-.642a1.27 1.27 0 0 0 .002-1.182zm-9.238-9.175H9.347c-.2 0-.388.08-.388.28v1.362c0 .15.035.45.065.595l.493 2.572c.03.147.2.44.35.44h.425c.152 0 .333-.292.362-.44l.477-2.602a3.82 3.82 0 0 0 .077-.565v-.99c-.248-.209-.308-.402-.443-.652zm.445 6.023a.272.272 0 0 0-.272-.273H9.232a.272.272 0 0 0-.272.273v1.705c0 .151.122.273.272.273h1.705c.15 0 .272-.122.272-.273l.001-1.705zm0 0a.272.272 0 0 0-.272-.273H9.232a.272.272 0 0 0-.272.273v1.705c0 .151.122.273.272.273h1.705c.15 0 .272-.122.272-.273l.001-1.705zm-.445-6.023H9.347c-.2 0-.388.08-.388.28v1.362c0 .15.035.45.065.595l.493 2.572c.03.147.2.44.35.44h.425c.152 0 .333-.292.362-.44l.477-2.602a3.82 3.82 0 0 0 .077-.565v-.99c-.248-.209-.308-.402-.443-.652zM18.573 0c-4.055 0-7.418 2.667-8.04 6.75a9.01 9.01 0 0 0-.105 1.393c0 1.15.177 2.188.503 3.107a7.3 7.3 0 0 0 1.427 2.452c1.003 1.135 2.337 1.91 3.862 2.298.745.19 1.535.288 2.353.288a8.144 8.144 0 0 0 0-16.288zm5.667 5.548-7.122 7.122c-.048.05-.112.073-.175.073s-.125-.023-.175-.073l-1.595-1.595c-.098-.098-.253-.253-.35-.345l-1.92-1.925a.247.247 0 0 1 0-.35l1.595-1.595c.05-.05.112-.072.175-.072s.127.022.174.072l1.92 1.92a.249.249 0 0 0 .35 0l5.165-5.165c.05-.048.113-.073.175-.073s.127.025.175.073l1.608 1.587a.242.242 0 0 1 0 .346z" style="fill:url(#e);fill-opacity:1"/><path style="fill:url(#f);fill-opacity:1" d="M.793 24.148c-.64-.264-.957-1.036-.677-1.645.033-.07 1.919-3.276 4.191-7.122 2.273-3.846 4.302-7.282 4.51-7.635.285-.485.411-.675.518-.78.077-.076.147-.132.154-.125a1.43 1.43 0 0 1-.02.254c-.022.158-.033.535-.032 1.1.001.92.023 1.197.154 1.917l.066.365-2.585 4.435a76265.4 76265.4 0 0 1-3.349 5.743l-.763 1.309 3.567.006c1.962.004 5.163.004 7.114 0l3.548-.006-1.69-2.898a203.81 203.81 0 0 1-1.678-2.908c.006-.006.14.054.297.133a9.586 9.586 0 0 0 2.505.827l.27.045 1.568 2.654c1.046 1.77 1.584 2.705 1.616 2.807.1.321.046.743-.13 1.017a1.577 1.577 0 0 1-.534.486l-.148.07-9.163.006-9.162.005-.147-.06z"/><path style="fill:url(#g);fill-opacity:1" d="m9.057 21.132-.084-.075v-1.9l.076-.079.075-.078h1.92l.074.075.075.075v1.907l-.075.075-.075.075H9.141l-.084-.075z"/><path style="fill:url(#h);fill-opacity:1" d="M9.75 18.41a.796.796 0 0 1-.145-.212c-.07-.139-.116-.346-.337-1.513a38.158 38.158 0 0 1-.282-1.604c-.04-.414-.033-1.558.01-1.662.07-.164.101-.17.984-.162l.79.007.11.205a1.6 1.6 0 0 0 .214.311l.104.106-.011.639-.011.638-.262 1.411c-.144.777-.28 1.468-.302 1.536a.705.705 0 0 1-.149.238l-.108.113h-.27c-.23 0-.28-.008-.335-.051z"/></svg>