<svg xmlns="http://www.w3.org/2000/svg" style="enable-background:new 0 0 32 32" xml:space="preserve" width="32" height="32" class="br-symbol-library"><path d="M27.313 4.688c-6.247-6.25-16.378-6.25-22.628 0-6.247 6.247-6.247 16.378 0 22.625 6.25 6.25 16.38 6.25 22.628 0 6.248-6.248 6.25-16.378 0-22.625zm-3.925 15.007a.652.652 0 0 1 0 .923l-2.77 2.77a.655.655 0 0 1-.925 0L16 19.696l-3.695 3.692a.652.652 0 0 1-.923 0l-2.77-2.77a.652.652 0 0 1 0-.923L12.306 16l-3.693-3.695a.652.652 0 0 1 0-.923l2.77-2.77a.652.652 0 0 1 .923 0l3.695 3.693 3.693-3.693a.655.655 0 0 1 .925 0l2.77 2.77a.652.652 0 0 1 0 .923L19.693 16l3.695 3.695z"/></svg>